<svg xmlns="http://www.w3.org/2000/svg" width="2215.44" height="1487.99" viewBox="0 0 2215.44 1487.99">
  <rect x="0" y="0" width="2215.44" height="1487.99" fill="#FFFFFF"/>
  <defs><filter id="stencil-shadow" x="-50%" y="-50%" width="200%" height="200%"><feGaussianBlur stdDeviation="2.5"/></filter></defs>
  <g data-id="" data-tag="Page" data-projection="iso">
    <g data-id="/kicker" data-tag="Kicker">
      <rect x="20" y="20" width="70.61" height="16" rx="4" fill="#F3E5F5"/>
      <text x="27" y="31.64" xml:space="preserve" font-family="Inter" font-size="10" font-weight="800" letter-spacing="0.7" fill="#7B1FA2">INTERNAL</text>
      <text x="96.61" y="32" xml:space="preserve" font-family="Inter" font-size="11" font-weight="700" letter-spacing="0.88" fill="#1A73E8">ON-PREM NETWORK · HEAD OFFICE SITE</text>
    </g>
    <g data-id="/title" data-tag="Title">
      <text x="20" y="61.28" xml:space="preserve" font-family="Inter" font-size="20" font-weight="700" letter-spacing="-0.4" fill="#202124">Two firewall zones and four VLANs at the head office</text>
    </g>
    <g data-id="/lede" data-tag="Lede">
      <text x="20" y="82.53" xml:space="preserve" font-family="Inter" font-size="13" font-weight="400" fill="#5F6368">The core switch trunks the staff and server VLANs to the edge firewall, which routes them to the DMZ and the transit VLAN. Traffic that starts in the DMZ never reaches the inside zone.</text>
    </g>
    <g data-id="/body" data-tag="Body">
      <g data-id="/body/0" data-tag="Zone" data-kind="system">
        <polygon points="20,513.59 1492.24,1363.59 1492.24,1357.59 20,507.59" fill="#1A73E8"/>
        <polygon points="2195.44,957.6 1492.24,1363.59 1492.24,1357.59 2195.44,951.6" fill="#1257B3"/>
        <polygon points="723.2,101.6 2195.44,951.6 1492.24,1357.59 20,507.59" fill="#FAFBFC" stroke="#1A73E8" stroke-width="1.5" stroke-linejoin="round"/>
        <g data-plane="6" data-axis="x" transform="matrix(0.87 0.5 -0.87 0.5 793.86 40.8)">
          <text x="69" y="159.14" xml:space="preserve" font-family="Inter" font-size="25.2" font-weight="700" letter-spacing="0.25" fill="#1257B3">Head office site</text>
        </g>
        <g data-id="/body/0/children/0" data-tag="Row">
          <g data-id="/body/0/children/0/children/0" data-tag="Zone" data-kind="boundary">
            <polygon points="650.24,207.22 1038.84,431.58 487.41,749.95 98.81,525.59" fill="none" stroke="#5F6368" stroke-width="2" stroke-dasharray="6 5" stroke-linejoin="round"/>
            <g data-plane="6" data-axis="x" transform="matrix(0.87 0.5 -0.87 0.5 793.86 40.8)">
              <text x="121" y="301.3" xml:space="preserve" font-family="Inter" font-size="15" font-weight="700" fill="#5F6368">Inside zone</text>
            </g>
            <g data-id="/body/0/children/0/children/0/children/0" data-tag="Pcard">
              <polygon points="600.01,276.72 939.25,472.58 855.2,521.11 515.96,325.25" fill="#202124" fill-opacity="0.2" filter="url(#stencil-shadow)"/>
              <polygon points="515.96,322.25 855.2,518.11 855.2,500.11 515.96,304.25" fill="#EBEBEB" stroke="#DADCE0" stroke-width="1.5" stroke-linejoin="round"/>
              <polygon points="939.25,469.58 855.2,518.11 855.2,500.11 939.25,451.58" fill="#D6D6D6" stroke="#DADCE0" stroke-width="1.5" stroke-linejoin="round"/>
              <polygon points="600.01,255.72 939.25,451.58 855.2,500.11 515.96,304.25" fill="#FFFFFF" stroke="#DADCE0" stroke-width="1.5" stroke-linejoin="round"/>
              <g data-plane="24" data-axis="x" transform="matrix(0.87 0.5 -0.87 0.5 793.86 22.8)">
                <text x="140" y="373.13" xml:space="preserve" font-family="Inter" font-size="16.9" font-weight="700" fill="#202124">Core switch</text>
                <text x="140" y="393.15" xml:space="preserve" font-family="Inter" font-size="15.6" font-weight="400" fill="#5F6368">Layer 3, routes between VLANs</text>
                <text x="148" y="421.04" xml:space="preserve" font-family="Inter" font-size="15.6" font-weight="600" fill="#5F6368">• sw-core-01</text>
              </g>
            </g>
            <g data-id="/body/0/children/0/children/0/children/1" data-tag="Zone" data-kind="group-a">
              <polygon points="332.06,428.42 671.3,624.28 671.3,618.28 332.06,422.42" fill="#ACCBF9"/>
              <polygon points="843.07,525.11 671.3,624.28 671.3,618.28 843.07,519.11" fill="#85B3F7"/>
              <polygon points="503.83,323.25 843.07,519.11 671.3,618.28 332.06,422.42" fill="#D2E3FC"/>
              <g data-plane="12" data-axis="x" transform="matrix(0.87 0.5 -0.87 0.5 793.86 34.8)">
                <text x="161.5" y="510.86" xml:space="preserve" font-family="Inter" font-size="15" font-weight="700" fill="#5F6368">VLAN 10 · staff</text>
              </g>
              <g data-id="/body/0/children/0/children/0/children/1/children/0" data-tag="Row">
                <g data-id="/body/0/children/0/children/0/children/1/children/0/children/0" data-tag="Pcard">
                  <polygon points="453.6,395.75 576.83,466.89 509.85,505.56 386.62,434.42" fill="#202124" fill-opacity="0.2" filter="url(#stencil-shadow)"/>
                  <polygon points="386.62,431.42 509.85,502.56 509.85,484.56 386.62,413.42" fill="#EBEBEB" stroke="#DADCE0" stroke-width="1.5" stroke-linejoin="round"/>
                  <polygon points="576.83,463.89 509.85,502.56 509.85,484.56 576.83,445.89" fill="#D6D6D6" stroke="#DADCE0" stroke-width="1.5" stroke-linejoin="round"/>
                  <polygon points="453.6,374.75 576.83,445.89 509.85,484.56 386.62,413.42" fill="#FFFFFF" stroke="#DADCE0" stroke-width="1.5" stroke-linejoin="round"/>
                  <g data-plane="30" data-axis="x" transform="matrix(0.87 0.5 -0.87 0.5 793.86 16.8)">
                    <text x="180.5" y="582.69" xml:space="preserve" font-family="Inter" font-size="16.9" font-weight="700" fill="#202124">Print server</text>
                    <text x="188.5" y="610.88" xml:space="preserve" font-family="Inter" font-size="15.6" font-weight="600" fill="#5F6368">• prn-01</text>
                  </g>
                </g>
                <g data-id="/body/0/children/0/children/0/children/1/children/0/children/1" data-tag="Pcard">
                  <polygon points="588.95,473.89 738.28,560.11 671.3,598.78 521.97,512.56" fill="#202124" fill-opacity="0.2" filter="url(#stencil-shadow)"/>
                  <polygon points="521.97,509.56 671.3,595.78 671.3,577.78 521.97,491.56" fill="#EBEBEB" stroke="#DADCE0" stroke-width="1.5" stroke-linejoin="round"/>
                  <polygon points="738.28,557.11 671.3,595.78 671.3,577.78 738.28,539.11" fill="#D6D6D6" stroke="#DADCE0" stroke-width="1.5" stroke-linejoin="round"/>
                  <polygon points="588.95,452.89 738.28,539.11 671.3,577.78 521.97,491.56" fill="#FFFFFF" stroke="#DADCE0" stroke-width="1.5" stroke-linejoin="round"/>
                  <g data-plane="30" data-axis="x" transform="matrix(0.87 0.5 -0.87 0.5 793.86 16.8)">
                    <text x="336.79" y="582.69" xml:space="preserve" font-family="Inter" font-size="16.9" font-weight="700" fill="#202124">Directory server</text>
                    <text x="344.79" y="610.88" xml:space="preserve" font-family="Inter" font-size="15.6" font-weight="600" fill="#5F6368">• dc-01</text>
                  </g>
                </g>
              </g>
            </g>
            <g data-id="/body/0/children/0/children/0/children/2" data-tag="Zone" data-kind="group-b">
              <polygon points="148.17,534.59 487.41,730.45 487.41,724.45 148.17,528.59" fill="#F8BFD2"/>
              <polygon points="659.18,631.28 487.41,730.45 487.41,724.45 659.18,625.28" fill="#F49BB8"/>
              <polygon points="319.94,429.42 659.18,625.28 487.41,724.45 148.17,528.59" fill="#FCE4EC"/>
              <g data-plane="12" data-axis="x" transform="matrix(0.87 0.5 -0.87 0.5 793.86 34.8)">
                <text x="161.5" y="723.2" xml:space="preserve" font-family="Inter" font-size="15" font-weight="700" fill="#5F6368">VLAN 20 · servers</text>
              </g>
              <g data-id="/body/0/children/0/children/0/children/2/children/0" data-tag="Row">
                <g data-id="/body/0/children/0/children/0/children/2/children/0/children/0" data-tag="Pcard">
                  <polygon points="269.71,501.92 434.36,596.98 367.38,635.65 202.73,540.59" fill="#202124" fill-opacity="0.2" filter="url(#stencil-shadow)"/>
                  <polygon points="202.73,537.59 367.38,632.65 367.38,614.65 202.73,519.59" fill="#EBEBEB" stroke="#DADCE0" stroke-width="1.5" stroke-linejoin="round"/>
                  <polygon points="434.36,593.98 367.38,632.65 367.38,614.65 434.36,575.98" fill="#D6D6D6" stroke="#DADCE0" stroke-width="1.5" stroke-linejoin="round"/>
                  <polygon points="269.71,480.92 434.36,575.98 367.38,614.65 202.73,519.59" fill="#FFFFFF" stroke="#DADCE0" stroke-width="1.5" stroke-linejoin="round"/>
                  <g data-plane="30" data-axis="x" transform="matrix(0.87 0.5 -0.87 0.5 793.86 16.8)">
                    <text x="180.5" y="795.03" xml:space="preserve" font-family="Inter" font-size="16.9" font-weight="700" fill="#202124">Application server</text>
                    <text x="188.5" y="823.22" xml:space="preserve" font-family="Inter" font-size="15.6" font-weight="600" fill="#5F6368">• app-01</text>
                  </g>
                </g>
                <g data-id="/body/0/children/0/children/0/children/2/children/0/children/1" data-tag="Pcard">
                  <polygon points="446.48,603.98 554.39,666.28 487.41,704.95 379.5,642.65" fill="#202124" fill-opacity="0.2" filter="url(#stencil-shadow)"/>
                  <polygon points="379.5,639.65 487.41,701.95 487.41,683.95 379.5,621.65" fill="#EBEBEB" stroke="#DADCE0" stroke-width="1.5" stroke-linejoin="round"/>
                  <polygon points="554.39,663.28 487.41,701.95 487.41,683.95 554.39,645.28" fill="#D6D6D6" stroke="#DADCE0" stroke-width="1.5" stroke-linejoin="round"/>
                  <polygon points="446.48,582.98 554.39,645.28 487.41,683.95 379.5,621.65" fill="#FFFFFF" stroke="#DADCE0" stroke-width="1.5" stroke-linejoin="round"/>
                  <g data-plane="30" data-axis="x" transform="matrix(0.87 0.5 -0.87 0.5 793.86 16.8)">
                    <text x="384.62" y="795.03" xml:space="preserve" font-family="Inter" font-size="16.9" font-weight="700" fill="#202124">File server</text>
                    <text x="392.62" y="823.22" xml:space="preserve" font-family="Inter" font-size="15.6" font-weight="600" fill="#5F6368">• fs-01</text>
                  </g>
                </g>
              </g>
            </g>
          </g>
          <g data-id="/body/0/children/0/children/1" data-tag="Col">
            <g data-id="/body/0/children/0/children/1/children/0" data-tag="Pipe" data-kind="blue">
              <polygon points="800.3,544.81 800.45,543.43 800.88,541.97 801.57,540.54 802.46,539.23 803.51,538.12 804.63,537.31 805.75,536.83 806.79,536.73 807.69,537 808.38,537.64 808.81,538.6 808.96,539.81 808.81,541.18 808.38,542.64 807.69,544.07 806.79,545.39 805.75,546.49 804.63,547.31 803.51,547.78 802.46,547.89 801.57,547.61 800.88,546.97 800.45,546.01" fill="#1A73E8"/>
              <polygon points="807.69,537 1070.27,688.61 1067.21,693.91 804.63,542.31" fill="#5295EE"/>
              <polygon points="804.63,542.31 1067.21,693.91 1064.15,699.21 801.57,547.61" fill="#1A73E8"/>
              <polygon points="1062.88,696.41 1063.03,695.03 1063.46,693.57 1064.15,692.14 1065.05,690.83 1066.09,689.73 1067.21,688.91 1068.33,688.43 1069.38,688.33 1070.27,688.61 1070.96,689.24 1071.39,690.2 1071.54,691.41 1071.39,692.79 1070.96,694.24 1070.27,695.68 1069.38,696.99 1068.33,698.09 1067.21,698.91 1066.09,699.39 1065.05,699.49 1064.15,699.21 1063.46,698.57 1063.03,697.62" fill="#104EA0"/>
              <polygon points="796.83,544.81 797.04,542.87 797.65,540.84 798.61,538.83 799.87,536.99 801.33,535.45 802.9,534.31 804.47,533.64 805.93,533.49 807.18,533.88 808.15,534.77 808.75,536.11 808.96,537.81 808.75,539.74 808.15,541.77 807.18,543.78 805.93,545.62 804.47,547.16 802.9,548.31 801.33,548.97 799.87,549.12 798.61,548.73 797.65,547.84 797.04,546.5" fill="#1A73E8"/>
              <polygon points="807.18,533.88 810.65,535.88 806.36,543.31 802.9,541.31" fill="#5295EE"/>
              <polygon points="802.9,541.31 806.36,543.31 802.07,550.73 798.61,548.73" fill="#1A73E8"/>
              <polygon points="800.3,546.81 800.5,544.87 801.11,542.84 802.07,540.83 803.33,538.99 804.79,537.45 806.36,536.31 807.93,535.64 809.39,535.49 810.65,535.88 811.61,536.77 812.22,538.11 812.42,539.81 812.22,541.74 811.61,543.77 810.65,545.78 809.39,547.62 807.93,549.16 806.36,550.31 804.79,550.97 803.33,551.12 802.07,550.73 801.11,549.84 800.5,548.5" fill="#104EA0"/>
              <polygon points="1059.42,696.41 1059.62,694.48 1060.23,692.44 1061.19,690.43 1062.45,688.6 1063.91,687.05 1065.48,685.91 1067.05,685.24 1068.51,685.1 1069.77,685.48 1070.73,686.38 1071.34,687.72 1071.54,689.41 1071.34,691.34 1070.73,693.38 1069.77,695.38 1068.51,697.22 1067.05,698.76 1065.48,699.91 1063.91,700.58 1062.45,700.72 1061.19,700.33 1060.23,699.44 1059.62,698.1" fill="#1A73E8"/>
              <polygon points="1069.77,685.48 1073.23,687.48 1068.94,694.91 1065.48,692.91" fill="#5295EE"/>
              <polygon points="1065.48,692.91 1068.94,694.91 1064.66,702.33 1061.19,700.33" fill="#1A73E8"/>
              <polygon points="1062.88,698.41 1063.09,696.48 1063.69,694.44 1064.66,692.43 1065.91,690.6 1067.38,689.05 1068.94,687.91 1070.51,687.24 1071.98,687.1 1073.23,687.48 1074.19,688.38 1074.8,689.72 1075.01,691.41 1074.8,693.34 1074.19,695.38 1073.23,697.38 1071.98,699.22 1070.51,700.76 1068.94,701.91 1067.38,702.58 1065.91,702.72 1064.66,702.33 1063.69,701.44 1063.09,700.1" fill="#104EA0"/>
              <g data-plane="16" data-axis="x" transform="matrix(0.87 0.5 -0.87 0.5 793.86 30.8)">
                <rect x="626.22" y="472.26" width="95.71" height="56.06" rx="5.25" fill="#FFFFFF" stroke="#DADCE0" stroke-width="1.5"/>
                <text x="641.6" y="494.82" xml:space="preserve" font-family="Inter" font-size="15.6" font-weight="700" fill="#202124">VLAN 10</text>
                <text x="634.97" y="517.1" xml:space="preserve" font-family="Inter" font-size="15.6" font-weight="600" fill="#5F6368">staff trunk</text>
              </g>
            </g>
            <g data-id="/body/0/children/0/children/1/children/1" data-tag="Pipe" data-kind="pink">
              <polygon points="749.15,593.84 749.3,592.46 749.73,591 750.42,589.57 751.32,588.26 752.36,587.15 753.48,586.34 754.6,585.86 755.65,585.76 756.54,586.03 757.23,586.67 757.66,587.63 757.81,588.84 757.66,590.21 757.23,591.67 756.54,593.1 755.65,594.42 754.6,595.52 753.48,596.34 752.36,596.81 751.32,596.92 750.42,596.64 749.73,596 749.3,595.04" fill="#C2185B"/>
              <polygon points="756.54,586.03 1002.24,727.89 999.18,733.19 753.48,591.34" fill="#E63279"/>
              <polygon points="753.48,591.34 999.18,733.19 996.12,738.49 750.42,596.64" fill="#C2185B"/>
              <polygon points="994.85,735.69 994.99,734.31 995.43,732.85 996.12,731.42 997.01,730.11 998.06,729.01 999.18,728.19 1000.3,727.71 1001.34,727.61 1002.24,727.89 1002.93,728.52 1003.36,729.48 1003.51,730.69 1003.36,732.07 1002.93,733.52 1002.24,734.96 1001.34,736.27 1000.3,737.37 999.18,738.19 998.06,738.67 997.01,738.77 996.12,738.49 995.43,737.85 994.99,736.9" fill="#790F39"/>
              <polygon points="745.69,593.84 745.89,591.9 746.5,589.87 747.46,587.86 748.72,586.02 750.18,584.48 751.75,583.34 753.32,582.67 754.78,582.52 756.04,582.91 757,583.8 757.6,585.14 757.81,586.84 757.6,588.77 757,590.8 756.04,592.81 754.78,594.65 753.32,596.19 751.75,597.34 750.18,598 748.72,598.15 747.46,597.76 746.5,596.87 745.89,595.53" fill="#C2185B"/>
              <polygon points="756.04,582.91 759.5,584.91 755.21,592.34 751.75,590.34" fill="#E63279"/>
              <polygon points="751.75,590.34 755.21,592.34 750.93,599.76 747.46,597.76" fill="#C2185B"/>
              <polygon points="749.15,595.84 749.36,593.9 749.96,591.87 750.93,589.86 752.18,588.02 753.64,586.48 755.21,585.34 756.78,584.67 758.24,584.52 759.5,584.91 760.46,585.8 761.07,587.14 761.28,588.84 761.07,590.77 760.46,592.8 759.5,594.81 758.24,596.65 756.78,598.19 755.21,599.34 753.64,600 752.18,600.15 750.93,599.76 749.96,598.87 749.36,597.53" fill="#790F39"/>
              <polygon points="991.38,735.69 991.59,733.76 992.2,731.72 993.16,729.71 994.41,727.88 995.88,726.33 997.45,725.19 999.01,724.52 1000.48,724.38 1001.73,724.76 1002.7,725.66 1003.3,727 1003.51,728.69 1003.3,730.62 1002.7,732.66 1001.73,734.66 1000.48,736.5 999.01,738.04 997.45,739.19 995.88,739.86 994.41,740 993.16,739.61 992.2,738.72 991.59,737.38" fill="#C2185B"/>
              <polygon points="1001.73,724.76 1005.2,726.76 1000.91,734.19 997.45,732.19" fill="#E63279"/>
              <polygon points="997.45,732.19 1000.91,734.19 996.62,741.61 993.16,739.61" fill="#C2185B"/>
              <polygon points="994.85,737.69 995.05,735.76 995.66,733.72 996.62,731.71 997.88,729.88 999.34,728.33 1000.91,727.19 1002.48,726.52 1003.94,726.38 1005.2,726.76 1006.16,727.66 1006.76,729 1006.97,730.69 1006.76,732.62 1006.16,734.66 1005.2,736.66 1003.94,738.5 1002.48,740.04 1000.91,741.19 999.34,741.86 997.88,742 996.62,741.61 995.66,740.72 995.05,739.38" fill="#790F39"/>
              <g data-plane="16" data-axis="x" transform="matrix(0.87 0.5 -0.87 0.5 793.86 30.8)">
                <rect x="619.26" y="550.82" width="109.62" height="56.06" rx="5.25" fill="#FFFFFF" stroke="#DADCE0" stroke-width="1.5"/>
                <text x="640.05" y="573.38" xml:space="preserve" font-family="Inter" font-size="15.6" font-weight="700" fill="#202124">VLAN 20</text>
                <text x="628.01" y="595.66" xml:space="preserve" font-family="Inter" font-size="15.6" font-weight="600" fill="#5F6368">server trunk</text>
              </g>
            </g>
            <g data-id="/body/0/children/0/children/1/children/2" data-tag="Pipe" data-kind="deny">
              <polygon points="697.69,631.55 697.84,630.17 698.27,628.71 698.96,627.28 699.86,625.97 700.9,624.86 702.02,624.05 703.14,623.57 704.19,623.47 705.08,623.74 705.77,624.38 706.2,625.34 706.35,626.55 706.2,627.92 705.77,629.38 705.08,630.81 704.19,632.13 703.14,633.23 702.02,634.05 700.9,634.52 699.86,634.63 698.96,634.35 698.27,633.71 697.84,632.75" fill="#FFFFFF" stroke="#C5221F" stroke-width="1.5" stroke-dasharray="6 5"/>
              <polygon points="705.08,623.74 943.85,761.6 937.73,772.2 698.96,634.35" fill="#FFFFFF" stroke="#C5221F" stroke-width="1.5" stroke-dasharray="6 5"/>
              <polygon points="936.46,769.4 936.61,768.02 937.04,766.56 937.73,765.13 938.62,763.82 939.67,762.72 940.79,761.9 941.91,761.42 942.95,761.32 943.85,761.6 944.54,762.23 944.97,763.19 945.12,764.4 944.97,765.78 944.54,767.23 943.85,768.67 942.95,769.98 941.91,771.08 940.79,771.9 939.67,772.38 938.62,772.48 937.73,772.2 937.04,771.56 936.61,770.61" fill="#FFFFFF" stroke="#C5221F" stroke-width="1.5" stroke-dasharray="6 5"/>
              <polygon points="691.63,623.05 707.23,620.03 696.82,638.06" fill="#C5221F"/>
              <polygon points="933,769.4 933.2,767.47 933.81,765.43 934.77,763.42 936.03,761.59 937.49,760.04 939.06,758.9 940.63,758.23 942.09,758.09 943.34,758.47 944.31,759.37 944.91,760.71 945.12,762.4 944.91,764.33 944.31,766.37 943.34,768.37 942.09,770.21 940.63,771.75 939.06,772.9 937.49,773.57 936.03,773.71 934.77,773.32 933.81,772.43 933.2,771.09" fill="#FFFFFF" stroke="#C5221F" stroke-width="1.5"/>
              <polygon points="943.34,758.47 946.81,760.47 938.24,775.32 934.77,773.32" fill="#FFFFFF" stroke="#C5221F" stroke-width="1.5"/>
              <polygon points="936.46,771.4 936.67,769.47 937.27,767.43 938.24,765.42 939.49,763.59 940.95,762.04 942.52,760.9 944.09,760.23 945.55,760.09 946.81,760.47 947.77,761.37 948.38,762.71 948.58,764.4 948.38,766.33 947.77,768.37 946.81,770.37 945.55,772.21 944.09,773.75 942.52,774.9 940.95,775.57 939.49,775.71 938.24,775.32 937.27,774.43 936.67,773.09" fill="#FFFFFF" stroke="#C5221F" stroke-width="1.5"/>
              <g data-plane="16" data-axis="x" transform="matrix(0.87 0.5 -0.87 0.5 793.86 30.8)">
                <rect x="612.97" y="629.38" width="122.21" height="33.78" rx="5.25" fill="#FFFFFF" stroke="#F4C7C3" stroke-width="1.5"/>
                <text x="621.72" y="651.94" xml:space="preserve" font-family="Inter" font-size="15.6" font-weight="700" fill="#C5221F">DMZ to inside</text>
              </g>
            </g>
          </g>
          <g data-id="/body/0/children/0/children/2" data-tag="Col">
            <g data-id="/body/0/children/0/children/2/children/0" data-tag="Pcard">
              <polygon points="1284.54,576.43 1449.75,671.81 898.31,990.18 733.11,894.8" fill="#202124" fill-opacity="0.2" filter="url(#stencil-shadow)"/>
              <polygon points="733.11,891.8 898.31,987.18 898.31,969.18 733.11,873.8" fill="#EBEBEB" stroke="#DADCE0" stroke-width="1.5" stroke-linejoin="round"/>
              <polygon points="1449.75,668.81 898.31,987.18 898.31,969.18 1449.75,650.81" fill="#D6D6D6" stroke="#DADCE0" stroke-width="1.5" stroke-linejoin="round"/>
              <polygon points="1284.54,555.43 1449.75,650.81 898.31,969.18 733.11,873.8" fill="#FFFFFF" stroke="#DADCE0" stroke-width="1.5" stroke-linejoin="round"/>
              <g data-plane="24" data-axis="x" transform="matrix(0.87 0.5 -0.87 0.5 793.86 22.8)">
                <text x="834.93" y="547.47" xml:space="preserve" font-family="Inter" font-size="16.9" font-weight="700" fill="#202124">Edge firewall</text>
                <text x="834.93" y="567.49" xml:space="preserve" font-family="Inter" font-size="15.6" font-weight="400" fill="#5F6368">stateful, zone policy</text>
                <text x="842.93" y="595.38" xml:space="preserve" font-family="Inter" font-size="15.6" font-weight="600" fill="#5F6368">• fw-edge-01</text>
              </g>
            </g>
          </g>
          <g data-id="/body/0/children/0/children/3" data-tag="Col">
            <g data-id="/body/0/children/0/children/3/children/0" data-tag="Pipe" data-kind="solid-3">
              <polygon points="1203.72,805.86 1203.86,804.48 1204.3,803.02 1204.98,801.59 1205.88,800.28 1206.93,799.18 1208.05,798.36 1209.17,797.88 1210.21,797.78 1211.11,798.06 1211.8,798.69 1212.23,799.65 1212.38,800.86 1212.23,802.24 1211.8,803.69 1211.11,805.13 1210.21,806.44 1209.17,807.54 1208.05,808.36 1206.93,808.84 1205.88,808.94 1204.98,808.66 1204.3,808.02 1203.86,807.07" fill="#007D78"/>
              <polygon points="1211.11,798.06 1457.74,940.45 1454.68,945.75 1208.05,803.36" fill="#00BAB3"/>
              <polygon points="1208.05,803.36 1454.68,945.75 1451.62,951.06 1204.98,808.66" fill="#007D78"/>
              <polygon points="1450.35,948.25 1450.5,946.87 1450.93,945.42 1451.62,943.99 1452.52,942.67 1453.56,941.57 1454.68,940.75 1455.8,940.28 1456.85,940.17 1457.74,940.45 1458.43,941.09 1458.86,942.04 1459.01,943.25 1458.86,944.63 1458.43,946.09 1457.74,947.52 1456.85,948.83 1455.8,949.94 1454.68,950.75 1453.56,951.23 1452.52,951.33 1451.62,951.06 1450.93,950.42 1450.5,949.46" fill="#002B2A"/>
              <polygon points="1200.25,805.86 1200.46,803.93 1201.06,801.89 1202.03,799.88 1203.28,798.05 1204.75,796.5 1206.31,795.36 1207.88,794.69 1209.35,794.55 1210.6,794.93 1211.56,795.83 1212.17,797.17 1212.38,798.86 1212.17,800.79 1211.56,802.83 1210.6,804.83 1209.35,806.67 1207.88,808.21 1206.31,809.36 1204.75,810.03 1203.28,810.17 1202.03,809.78 1201.06,808.89 1200.46,807.55" fill="#007D78"/>
              <polygon points="1210.6,794.93 1214.07,796.93 1209.78,804.36 1206.31,802.36" fill="#00BAB3"/>
              <polygon points="1206.31,802.36 1209.78,804.36 1205.49,811.78 1202.03,809.78" fill="#007D78"/>
              <polygon points="1203.72,807.86 1203.92,805.93 1204.53,803.89 1205.49,801.88 1206.75,800.05 1208.21,798.5 1209.78,797.36 1211.35,796.69 1212.81,796.55 1214.07,796.93 1215.03,797.83 1215.63,799.17 1215.84,800.86 1215.63,802.79 1215.03,804.83 1214.07,806.83 1212.81,808.67 1211.35,810.21 1209.78,811.36 1208.21,812.03 1206.75,812.17 1205.49,811.78 1204.53,810.89 1203.92,809.55" fill="#002B2A"/>
              <polygon points="1446.89,948.25 1447.09,946.32 1447.7,944.28 1448.66,942.28 1449.92,940.44 1451.38,938.9 1452.95,937.75 1454.52,937.09 1455.98,936.94 1457.24,937.33 1458.2,938.22 1458.8,939.56 1459.01,941.25 1458.8,943.18 1458.2,945.22 1457.24,947.23 1455.98,949.07 1454.52,950.61 1452.95,951.75 1451.38,952.42 1449.92,952.57 1448.66,952.18 1447.7,951.28 1447.09,949.95" fill="#007D78"/>
              <polygon points="1457.24,937.33 1460.7,939.33 1456.41,946.75 1452.95,944.75" fill="#00BAB3"/>
              <polygon points="1452.95,944.75 1456.41,946.75 1452.13,954.18 1448.66,952.18" fill="#007D78"/>
              <polygon points="1450.35,950.25 1450.56,948.32 1451.16,946.28 1452.13,944.28 1453.38,942.44 1454.84,940.9 1456.41,939.75 1457.98,939.09 1459.44,938.94 1460.7,939.33 1461.66,940.22 1462.27,941.56 1462.47,943.25 1462.27,945.18 1461.66,947.22 1460.7,949.23 1459.44,951.07 1457.98,952.61 1456.41,953.75 1454.84,954.42 1453.38,954.57 1452.13,954.18 1451.16,953.28 1450.56,951.95" fill="#002B2A"/>
              <g data-plane="16" data-axis="x" transform="matrix(0.87 0.5 -0.87 0.5 793.86 30.8)">
                <rect x="1087.44" y="500.4" width="85.79" height="56.06" rx="5.25" fill="#FFFFFF" stroke="#DADCE0" stroke-width="1.5"/>
                <text x="1096.19" y="522.96" xml:space="preserve" font-family="Inter" font-size="15.6" font-weight="700" fill="#202124">VLAN 30</text>
                <text x="1112.42" y="545.24" xml:space="preserve" font-family="Inter" font-size="15.6" font-weight="600" fill="#5F6368">DMZ</text>
              </g>
            </g>
            <g data-id="/body/0/children/0/children/3/children/1" data-tag="Pipe" data-kind="solid-4">
              <polygon points="1148.67,842.64 1395.31,985.03 1377.99,995.03 1131.35,852.64" fill="#A36E14"/>
              <g data-plane="6" data-axis="x" transform="matrix(0.87 0.5 -0.87 0.5 793.86 40.8)">
                <rect x="1087.6" y="578.96" width="85.46" height="56.06" rx="5.25" fill="#FFFFFF" stroke="#DADCE0" stroke-width="1.5"/>
                <text x="1096.35" y="601.52" xml:space="preserve" font-family="Inter" font-size="15.6" font-weight="700" fill="#202124">VLAN 99</text>
                <text x="1106.22" y="623.8" xml:space="preserve" font-family="Inter" font-size="15.6" font-weight="600" fill="#5F6368">transit</text>
              </g>
            </g>
          </g>
          <g data-id="/body/0/children/0/children/4" data-tag="Zone" data-kind="boundary">
            <polygon points="1663.9,792.46 2043.68,1011.72 1492.24,1330.09 1112.47,1110.83" fill="none" stroke="#5F6368" stroke-width="2" stroke-dasharray="6 5" stroke-linejoin="round"/>
            <g data-plane="6" data-axis="x" transform="matrix(0.87 0.5 -0.87 0.5 793.86 40.8)">
              <text x="1291.48" y="301.3" xml:space="preserve" font-family="Inter" font-size="15" font-weight="700" fill="#5F6368">DMZ</text>
            </g>
            <g data-id="/body/0/children/0/children/4/children/0" data-tag="Zone" data-kind="group-c">
              <polygon points="1441.91,958.13 1772.32,1148.89 1772.32,1142.89 1441.91,952.13" fill="#BBF8FA"/>
              <polygon points="1944.08,1049.72 1772.32,1148.89 1772.32,1142.89 1944.08,1043.72" fill="#94F4F8"/>
              <polygon points="1613.67,852.96 1944.08,1043.72 1772.32,1142.89 1441.91,952.13" fill="#E1FCFD"/>
              <g data-plane="12" data-axis="x" transform="matrix(0.87 0.5 -0.87 0.5 793.86 34.8)">
                <text x="1331.98" y="399.8" xml:space="preserve" font-family="Inter" font-size="15" font-weight="700" fill="#004845">VLAN 30 · public services</text>
              </g>
              <g data-id="/body/0/children/0/children/4/children/0/children/0" data-tag="Row">
                <g data-id="/body/0/children/0/children/4/children/0/children/0/children/0" data-tag="Pcard">
                  <polygon points="1563.44,925.46 1695.31,1001.59 1628.33,1040.26 1496.47,964.13" fill="#202124" fill-opacity="0.2" filter="url(#stencil-shadow)"/>
                  <polygon points="1496.47,961.13 1628.33,1037.26 1628.33,1019.26 1496.47,943.13" fill="#EBEBEB" stroke="#DADCE0" stroke-width="1.5" stroke-linejoin="round"/>
                  <polygon points="1695.31,998.59 1628.33,1037.26 1628.33,1019.26 1695.31,980.59" fill="#D6D6D6" stroke="#DADCE0" stroke-width="1.5" stroke-linejoin="round"/>
                  <polygon points="1563.44,904.46 1695.31,980.59 1628.33,1019.26 1496.47,943.13" fill="#FFFFFF" stroke="#DADCE0" stroke-width="1.5" stroke-linejoin="round"/>
                  <g data-plane="30" data-axis="x" transform="matrix(0.87 0.5 -0.87 0.5 793.86 16.8)">
                    <text x="1350.98" y="471.63" xml:space="preserve" font-family="Inter" font-size="16.9" font-weight="700" fill="#202124">Web server</text>
                    <text x="1358.98" y="499.82" xml:space="preserve" font-family="Inter" font-size="15.6" font-weight="600" fill="#5F6368">• web-01</text>
                  </g>
                </g>
                <g data-id="/body/0/children/0/children/4/children/0/children/0/children/1" data-tag="Pcard">
                  <polygon points="1707.43,1008.59 1839.29,1084.72 1772.32,1123.39 1640.45,1047.26" fill="#202124" fill-opacity="0.2" filter="url(#stencil-shadow)"/>
                  <polygon points="1640.45,1044.26 1772.32,1120.39 1772.32,1102.39 1640.45,1026.26" fill="#EBEBEB" stroke="#DADCE0" stroke-width="1.5" stroke-linejoin="round"/>
                  <polygon points="1839.29,1081.72 1772.32,1120.39 1772.32,1102.39 1839.29,1063.72" fill="#D6D6D6" stroke="#DADCE0" stroke-width="1.5" stroke-linejoin="round"/>
                  <polygon points="1707.43,987.59 1839.29,1063.72 1772.32,1102.39 1640.45,1026.26" fill="#FFFFFF" stroke="#DADCE0" stroke-width="1.5" stroke-linejoin="round"/>
                  <g data-plane="30" data-axis="x" transform="matrix(0.87 0.5 -0.87 0.5 793.86 16.8)">
                    <text x="1517.24" y="471.63" xml:space="preserve" font-family="Inter" font-size="16.9" font-weight="700" fill="#202124">Mail relay</text>
                    <text x="1525.24" y="499.82" xml:space="preserve" font-family="Inter" font-size="15.6" font-weight="600" fill="#5F6368">• mx-01</text>
                  </g>
                </g>
              </g>
            </g>
            <g data-id="/body/0/children/0/children/4/children/1" data-tag="Zone" data-kind="group-d">
              <polygon points="1240.94,1074.16 1571.35,1264.92 1571.35,1258.92 1240.94,1068.16" fill="#F6F5A5"/>
              <polygon points="1760.19,1155.89 1571.35,1264.92 1571.35,1258.92 1760.19,1149.89" fill="#F3F17F"/>
              <polygon points="1429.78,959.13 1760.19,1149.89 1571.35,1258.92 1240.94,1068.16" fill="#FAF9CA"/>
              <g data-plane="12" data-axis="x" transform="matrix(0.87 0.5 -0.87 0.5 793.86 34.8)">
                <text x="1331.98" y="612.14" xml:space="preserve" font-family="Inter" font-size="15" font-weight="700" fill="#5A3900">VLAN 99 · transit</text>
              </g>
              <g data-id="/body/0/children/0/children/4/children/1/children/0" data-tag="Pcard">
                <polygon points="1379.55,1031.63 1655.4,1190.89 1571.35,1239.42 1295.5,1080.16" fill="#202124" fill-opacity="0.2" filter="url(#stencil-shadow)"/>
                <polygon points="1295.5,1077.16 1571.35,1236.42 1571.35,1218.42 1295.5,1059.16" fill="#EBEBEB" stroke="#DADCE0" stroke-width="1.5" stroke-linejoin="round"/>
                <polygon points="1655.4,1187.89 1571.35,1236.42 1571.35,1218.42 1655.4,1169.89" fill="#D6D6D6" stroke="#DADCE0" stroke-width="1.5" stroke-linejoin="round"/>
                <polygon points="1379.55,1010.63 1655.4,1169.89 1571.35,1218.42 1295.5,1059.16" fill="#FFFFFF" stroke="#DADCE0" stroke-width="1.5" stroke-linejoin="round"/>
                <g data-plane="30" data-axis="x" transform="matrix(0.87 0.5 -0.87 0.5 793.86 16.8)">
                  <text x="1350.98" y="683.97" xml:space="preserve" font-family="Inter" font-size="16.9" font-weight="700" fill="#202124">Edge router</text>
                  <text x="1350.98" y="703.99" xml:space="preserve" font-family="Inter" font-size="15.6" font-weight="400" fill="#5F6368">ISP uplink</text>
                  <text x="1358.98" y="731.88" xml:space="preserve" font-family="Inter" font-size="15.6" font-weight="600" fill="#5F6368">• rt-edge-01</text>
                </g>
              </g>
            </g>
          </g>
        </g>
      </g>
    </g>
    <g data-id="/legend" data-tag="Legend">
      <g data-id="/legend/0" data-tag="LegendEntry" data-kind="blue">
        <line x1="20" y1="1460.79" x2="46" y2="1460.79" stroke="#1A73E8" stroke-width="3.75"/>
        <text x="52" y="1465.16" xml:space="preserve" font-family="Inter" font-size="12" font-weight="700" fill="#202124">Solid blue</text>
        <text x="115.56" y="1465.16" xml:space="preserve" font-family="Inter" font-size="12" font-weight="400" fill="#5F6368">VLAN 10, staff</text>
      </g>
      <g data-id="/legend/1" data-tag="LegendEntry" data-kind="pink">
        <line x1="211.77" y1="1460.79" x2="237.77" y2="1460.79" stroke="#C2185B" stroke-width="2.5"/>
        <text x="243.77" y="1465.16" xml:space="preserve" font-family="Inter" font-size="12" font-weight="700" fill="#202124">Solid pink</text>
        <text x="307.15" y="1465.16" xml:space="preserve" font-family="Inter" font-size="12" font-weight="400" fill="#5F6368">VLAN 20, servers</text>
      </g>
      <g data-id="/legend/2" data-tag="LegendEntry" data-kind="solid-3">
        <line x1="422.71" y1="1460.79" x2="448.71" y2="1460.79" stroke="#007D78" stroke-width="2.5"/>
        <text x="454.71" y="1465.16" xml:space="preserve" font-family="Inter" font-size="12" font-weight="700" fill="#202124">Solid teal</text>
        <text x="514.6" y="1465.16" xml:space="preserve" font-family="Inter" font-size="12" font-weight="400" fill="#5F6368">VLAN 30, DMZ</text>
      </g>
      <g data-id="/legend/3" data-tag="LegendEntry" data-kind="solid-4">
        <line x1="614.92" y1="1460.79" x2="640.92" y2="1460.79" stroke="#A36E14" stroke-width="2.5"/>
        <text x="646.92" y="1465.16" xml:space="preserve" font-family="Inter" font-size="12" font-weight="700" fill="#202124">Solid amber</text>
        <text x="722.56" y="1465.16" xml:space="preserve" font-family="Inter" font-size="12" font-weight="400" fill="#5F6368">VLAN 99, transit</text>
      </g>
      <g data-id="/legend/4" data-tag="LegendEntry" data-kind="deny">
        <line x1="831.17" y1="1460.79" x2="857.17" y2="1460.79" stroke="#C5221F" stroke-width="2.5" stroke-dasharray="6 5"/>
        <text x="863.17" y="1465.16" xml:space="preserve" font-family="Inter" font-size="12" font-weight="700" fill="#202124">Dashed red</text>
        <text x="935.86" y="1465.16" xml:space="preserve" font-family="Inter" font-size="12" font-weight="400" fill="#5F6368">blocked by the firewall</text>
      </g>
    </g>
  </g>
</svg>
